# xmcd CD database file
#
# Track frame offsets:
#	183
#	12483
#	23808
#	34895
#	47058
#	58158
#	69145
#	80683
#	91845
#	105783
#	122633
#	136308
#	148958
#
# Disc length: 2193 seconds
#
# Revision: 1
# Processed by: cddbd v1.4PL0 Copyright (c) Steve Scherf et al.
# Submitted via: CDex 1.50
#
DISCID=ab088f0d
DTITLE=MICHELE - Linea Tre
DYEAR=1900
DGENRE=Dream
TTITLE0=Se mi vuoi lasciare
TTITLE1=Ma se tu vorrai
TTITLE2=Ridi
TTITLE3=Ti ringrazio perchè
TTITLE4=Ti senti sola stasera
TTITLE5=Dopo i giorni dell'amore
TTITLE6=OK
TTITLE7=E' stato facile
TTITLE8=Dite a Laura che l'amo
TTITLE9=Io tornerò
TTITLE10=Sei mia
TTITLE11=L'aeroplano
TTITLE12=Susan dei marinai
EXTD=
EXTT0=
EXTT1=
EXTT2=
EXTT3=
EXTT4=
EXTT5=
EXTT6=
EXTT7=
EXTT8=
EXTT9=
EXTT10=
EXTT11=
EXTT12=
PLAYORDER=
